{
.appVersion = "3343";
.formatVersion = 3;
axes = (
{
name = Regularity;
tag = REGU;
}
);
date = "2023-04-20 22:42:12 +0000";
familyName = "What’s The Point";
fontMaster = (
{
axesValues = (
0
);
id = m01;
metricValues = (
{
pos = 700;
},
{
},
{
}
);
name = Regular;
},
{
axesValues = (
100
);
id = m002;
metricValues = (
{
pos = 700;
},
{
},
{
}
);
name = Irregular;
}
);
glyphs = (
{
glyphname = A;
lastChange = "2023-05-11 20:25:14 +0000";
layers = (
{
layerId = m01;
shapes = (
{
closed = 1;
nodes = (
(179,560,o),
(210,591,o),
(210,630,cs),
(210,669,o),
(179,700,o),
(140,700,cs),
(101,700,o),
(70,669,o),
(70,630,cs),
(70,591,o),
(101,560,o),
(140,560,cs)
);
}
);
width = 560;
},
{
layerId = m002;
shapes = (
{
closed = 1;
nodes = (
(459,560,o),
(490,591,o),
(490,630,cs),
(490,669,o),
(459,700,o),
(420,700,cs),
(381,700,o),
(350,669,o),
(350,630,cs),
(350,591,o),
(381,560,o),
(420,560,cs)
);
}
);
width = 560;
}
);
unicode = (65,97);
},
{
glyphname = B;
lastChange = "2023-05-11 20:25:14 +0000";
layers = (
{
layerId = m01;
shapes = (
{
closed = 1;
nodes = (
(179,560,o),
(210,591,o),
(210,630,cs),
(210,669,o),
(179,700,o),
(140,700,cs),
(101,700,o),
(70,669,o),
(70,630,cs),
(70,591,o),
(101,560,o),
(140,560,cs)
);
},
{
closed = 1;
nodes = (
(179,280,o),
(210,311,o),
(210,350,cs),
(210,389,o),
(179,420,o),
(140,420,cs),
(101,420,o),
(70,389,o),
(70,350,cs),
(70,311,o),
(101,280,o),
(140,280,cs)
);
}
);
width = 560;
},
{
layerId = m002;
shapes = (
{
closed = 1;
nodes = (
(459,560,o),
(490,591,o),
(490,630,cs),
(490,669,o),
(459,700,o),
(420,700,cs),
(381,700,o),
(350,669,o),
(350,630,cs),
(350,591,o),
(381,560,o),
(420,560,cs)
);
},
{
closed = 1;
nodes = (
(179,560,o),
(210,591,o),
(210,630,cs),
(210,669,o),
(179,700,o),
(140,700,cs),
(101,700,o),
(70,669,o),
(70,630,cs),
(70,591,o),
(101,560,o),
(140,560,cs)
);
}
);
width = 560;
}
);
unicode = (66,98);
},
{
glyphname = C;
lastChange = "2023-05-11 20:25:14 +0000";
layers = (
{
layerId = m01;
shapes = (
{
closed = 1;
nodes = (
(179,560,o),
(210,591,o),
(210,630,cs),
(210,669,o),
(179,700,o),
(140,700,cs),
(101,700,o),
(70,669,o),
(70,630,cs),
(70,591,o),
(101,560,o),
(140,560,cs)
);
},
{
closed = 1;
nodes = (
(459,560,o),
(490,591,o),
(490,630,cs),
(490,669,o),
(459,700,o),
(420,700,cs),
(381,700,o),
(350,669,o),
(350,630,cs),
(350,591,o),
(381,560,o),
(420,560,cs)
);
}
);
width = 560;
},
{
layerId = m002;
shapes = (
{
closed = 1;
nodes = (
(459,560,o),
(490,591,o),
(490,630,cs),
(490,669,o),
(459,700,o),
(420,700,cs),
(381,700,o),
(350,669,o),
(350,630,cs),
(350,591,o),
(381,560,o),
(420,560,cs)
);
},
{
closed = 1;
nodes = (
(459,280,o),
(490,311,o),
(490,350,cs),
(490,389,o),
(459,420,o),
(420,420,cs),
(381,420,o),
(350,389,o),
(350,350,cs),
(350,311,o),
(381,280,o),
(420,280,cs)
);
}
);
width = 560;
}
);
unicode = (67,99);
},
{
glyphname = D;
lastChange = "2023-05-11 20:25:14 +0000";
layers = (
{
layerId = m01;
shapes = (
{
closed = 1;
nodes = (
(179,560,o),
(210,591,o),
(210,630,cs),
(210,669,o),
(179,700,o),
(140,700,cs),
(101,700,o),
(70,669,o),
(70,630,cs),
(70,591,o),
(101,560,o),
(140,560,cs)
);
},
{
closed = 1;
nodes = (
(459,560,o),
(490,591,o),
(490,630,cs),
(490,669,o),
(459,700,o),
(420,700,cs),
(381,700,o),
(350,669,o),
(350,630,cs),
(350,591,o),
(381,560,o),
(420,560,cs)
);
},
{
closed = 1;
nodes = (
(459,280,o),
(490,311,o),
(490,350,cs),
(490,389,o),
(459,420,o),
(420,420,cs),
(381,420,o),
(350,389,o),
(350,350,cs),
(350,311,o),
(381,280,o),
(420,280,cs)
);
}
);
width = 560;
},
{
guides = (
{
angle = 90;
pos = (490,491);
},
{
angle = 90;
pos = (70,491);
}
);
layerId = m002;
shapes = (
{
closed = 1;
nodes = (
(459,560,o),
(490,591,o),
(490,630,cs),
(490,669,o),
(459,700,o),
(420,700,cs),
(381,700,o),
(350,669,o),
(350,630,cs),
(350,591,o),
(381,560,o),
(420,560,cs)
);
},
{
closed = 1;
nodes = (
(459,280,o),
(490,311,o),
(490,350,cs),
(490,389,o),
(459,420,o),
(420,420,cs),
(381,420,o),
(350,389,o),
(350,350,cs),
(350,311,o),
(381,280,o),
(420,280,cs)
);
},
{
closed = 1;
nodes = (
(459,0,o),
(490,31,o),
(490,70,cs),
(490,109,o),
(459,140,o),
(420,140,cs),
(381,140,o),
(350,109,o),
(350,70,cs),
(350,31,o),
(381,0,o),
(420,0,cs)
);
}
);
width = 560;
}
);
unicode = (68,100);
},
{
glyphname = E;
lastChange = "2023-05-11 20:25:14 +0000";
layers = (
{
guides = (
{
angle = 90;
pos = (490,491);
},
{
angle = 90;
pos = (70,491);
}
);
layerId = m01;
shapes = (
{
closed = 1;
nodes = (
(179,560,o),
(210,591,o),
(210,630,cs),
(210,669,o),
(179,700,o),
(140,700,cs),
(101,700,o),
(70,669,o),
(70,630,cs),
(70,591,o),
(101,560,o),
(140,560,cs)
);
},
{
closed = 1;
nodes = (
(459,280,o),
(490,311,o),
(490,350,cs),
(490,389,o),
(459,420,o),
(420,420,cs),
(381,420,o),
(350,389,o),
(350,350,cs),
(350,311,o),
(381,280,o),
(420,280,cs)
);
}
);
width = 560;
},
{
guides = (
{
angle = 90;
pos = (490,491);
},
{
angle = 90;
pos = (70,491);
}
);
layerId = m002;
shapes = (
{
closed = 1;
nodes = (
(459,560,o),
(490,591,o),
(490,630,cs),
(490,669,o),
(459,700,o),
(420,700,cs),
(381,700,o),
(350,669,o),
(350,630,cs),
(350,591,o),
(381,560,o),
(420,560,cs)
);
},
{
closed = 1;
nodes = (
(459,0,o),
(490,31,o),
(490,70,cs),
(490,109,o),
(459,140,o),
(420,140,cs),
(381,140,o),
(350,109,o),
(350,70,cs),
(350,31,o),
(381,0,o),
(420,0,cs)
);
}
);
width = 560;
}
);
unicode = (69,101);
},
{
glyphname = F;
lastChange = "2023-05-11 20:25:14 +0000";
layers = (
{
layerId = m01;
shapes = (
{
closed = 1;
nodes = (
(179,560,o),
(210,591,o),
(210,630,cs),
(210,669,o),
(179,700,o),
(140,700,cs),
(101,700,o),
(70,669,o),
(70,630,cs),
(70,591,o),
(101,560,o),
(140,560,cs)
);
},
{
closed = 1;
nodes = (
(179,280,o),
(210,311,o),
(210,350,cs),
(210,389,o),
(179,420,o),
(140,420,cs),
(101,420,o),
(70,389,o),
(70,350,cs),
(70,311,o),
(101,280,o),
(140,280,cs)
);
},
{
closed = 1;
nodes = (
(459,560,o),
(490,591,o),
(490,630,cs),
(490,669,o),
(459,700,o),
(420,700,cs),
(381,700,o),
(350,669,o),
(350,630,cs),
(350,591,o),
(381,560,o),
(420,560,cs)
);
}
);
width = 560;
},
{
guides = (
{
angle = 90;
pos = (490,491);
},
{
angle = 90;
pos = (70,491);
},
{
pos = (140,280);
}
);
layerId = m002;
shapes = (
{
closed = 1;
nodes = (
(459,560,o),
(490,591,o),
(490,630,cs),
(490,669,o),
(459,700,o),
(420,700,cs),
(381,700,o),
(350,669,o),
(350,630,cs),
(350,591,o),
(381,560,o),
(420,560,cs)
);
},
{
closed = 1;
nodes = (
(179,560,o),
(210,591,o),
(210,630,cs),
(210,669,o),
(179,700,o),
(140,700,cs),
(101,700,o),
(70,669,o),
(70,630,cs),
(70,591,o),
(101,560,o),
(140,560,cs)
);
},
{
closed = 1;
nodes = (
(459,280,o),
(490,311,o),
(490,350,cs),
(490,389,o),
(459,420,o),
(420,420,cs),
(381,420,o),
(350,389,o),
(350,350,cs),
(350,311,o),
(381,280,o),
(420,280,cs)
);
}
);
width = 560;
}
);
unicode = (70,102);
},
{
glyphname = G;
lastChange = "2023-05-11 20:25:14 +0000";
layers = (
{
layerId = m01;
shapes = (
{
closed = 1;
nodes = (
(179,560,o),
(210,591,o),
(210,630,cs),
(210,669,o),
(179,700,o),
(140,700,cs),
(101,700,o),
(70,669,o),
(70,630,cs),
(70,591,o),
(101,560,o),
(140,560,cs)
);
},
{
closed = 1;
nodes = (
(179,280,o),
(210,311,o),
(210,350,cs),
(210,389,o),
(179,420,o),
(140,420,cs),
(101,420,o),
(70,389,o),
(70,350,cs),
(70,311,o),
(101,280,o),
(140,280,cs)
);
},
{
closed = 1;
nodes = (
(459,560,o),
(490,591,o),
(490,630,cs),
(490,669,o),
(459,700,o),
(420,700,cs),
(381,700,o),
(350,669,o),
(350,630,cs),
(350,591,o),
(381,560,o),
(420,560,cs)
);
},
{
closed = 1;
nodes = (
(459,280,o),
(490,311,o),
(490,350,cs),
(490,389,o),
(459,420,o),
(420,420,cs),
(381,420,o),
(350,389,o),
(350,350,cs),
(350,311,o),
(381,280,o),
(420,280,cs)
);
}
);
width = 560;
},
{
layerId = m002;
shapes = (
{
closed = 1;
nodes = (
(459,560,o),
(490,591,o),
(490,630,cs),
(490,669,o),
(459,700,o),
(420,700,cs),
(381,700,o),
(350,669,o),
(350,630,cs),
(350,591,o),
(381,560,o),
(420,560,cs)
);
},
{
closed = 1;
nodes = (
(179,560,o),
(210,591,o),
(210,630,cs),
(210,669,o),
(179,700,o),
(140,700,cs),
(101,700,o),
(70,669,o),
(70,630,cs),
(70,591,o),
(101,560,o),
(140,560,cs)
);
},
{
closed = 1;
nodes = (
(459,280,o),
(490,311,o),
(490,350,cs),
(490,389,o),
(459,420,o),
(420,420,cs),
(381,420,o),
(350,389,o),
(350,350,cs),
(350,311,o),
(381,280,o),
(420,280,cs)
);
},
{
closed = 1;
nodes = (
(459,0,o),
(490,31,o),
(490,70,cs),
(490,109,o),
(459,140,o),
(420,140,cs),
(381,140,o),
(350,109,o),
(350,70,cs),
(350,31,o),
(381,0,o),
(420,0,cs)
);
}
);
width = 560;
}
);
unicode = (71,103);
},
{
glyphname = H;
lastChange = "2023-05-11 20:25:14 +0000";
layers = (
{
layerId = m01;
shapes = (
{
closed = 1;
nodes = (
(179,560,o),
(210,591,o),
(210,630,cs),
(210,669,o),
(179,700,o),
(140,700,cs),
(101,700,o),
(70,669,o),
(70,630,cs),
(70,591,o),
(101,560,o),
(140,560,cs)
);
},
{
closed = 1;
nodes = (
(179,280,o),
(210,311,o),
(210,350,cs),
(210,389,o),
(179,420,o),
(140,420,cs),
(101,420,o),
(70,389,o),
(70,350,cs),
(70,311,o),
(101,280,o),
(140,280,cs)
);
},
{
closed = 1;
nodes = (
(459,280,o),
(490,311,o),
(490,350,cs),
(490,389,o),
(459,420,o),
(420,420,cs),
(381,420,o),
(350,389,o),
(350,350,cs),
(350,311,o),
(381,280,o),
(420,280,cs)
);
}
);
width = 560;
},
{
guides = (
{
angle = 90;
pos = (490,491);
},
{
angle = 90;
pos = (70,491);
}
);
layerId = m002;
shapes = (
{
closed = 1;
nodes = (
(459,560,o),
(490,591,o),
(490,630,cs),
(490,669,o),
(459,700,o),
(420,700,cs),
(381,700,o),
(350,669,o),
(350,630,cs),
(350,591,o),
(381,560,o),
(420,560,cs)
);
},
{
closed = 1;
nodes = (
(179,560,o),
(210,591,o),
(210,630,cs),
(210,669,o),
(179,700,o),
(140,700,cs),
(101,700,o),
(70,669,o),
(70,630,cs),
(70,591,o),
(101,560,o),
(140,560,cs)
);
},
{
closed = 1;
nodes = (
(459,0,o),
(490,31,o),
(490,70,cs),
(490,109,o),
(459,140,o),
(420,140,cs),
(381,140,o),
(350,109,o),
(350,70,cs),
(350,31,o),
(381,0,o),
(420,0,cs)
);
}
);
width = 560;
}
);
unicode = (72,104);
},
{
glyphname = I;
lastChange = "2023-05-11 20:25:14 +0000";
layers = (
{
layerId = m01;
shapes = (
{
closed = 1;
nodes = (
(179,280,o),
(210,311,o),
(210,350,cs),
(210,389,o),
(179,420,o),
(140,420,cs),
(101,420,o),
(70,389,o),
(70,350,cs),
(70,311,o),
(101,280,o),
(140,280,cs)
);
},
{
closed = 1;
nodes = (
(459,560,o),
(490,591,o),
(490,630,cs),
(490,669,o),
(459,700,o),
(420,700,cs),
(381,700,o),
(350,669,o),
(350,630,cs),
(350,591,o),
(381,560,o),
(420,560,cs)
);
}
);
width = 560;
},
{
layerId = m002;
shapes = (
{
closed = 1;
nodes = (
(179,560,o),
(210,591,o),
(210,630,cs),
(210,669,o),
(179,700,o),
(140,700,cs),
(101,700,o),
(70,669,o),
(70,630,cs),
(70,591,o),
(101,560,o),
(140,560,cs)
);
},
{
closed = 1;
nodes = (
(459,280,o),
(490,311,o),
(490,350,cs),
(490,389,o),
(459,420,o),
(420,420,cs),
(381,420,o),
(350,389,o),
(350,350,cs),
(350,311,o),
(381,280,o),
(420,280,cs)
);
}
);
width = 560;
}
);
unicode = (73,105);
},
{
glyphname = J;
lastChange = "2023-05-11 20:25:14 +0000";
layers = (
{
layerId = m01;
shapes = (
{
closed = 1;
nodes = (
(179,280,o),
(210,311,o),
(210,350,cs),
(210,389,o),
(179,420,o),
(140,420,cs),
(101,420,o),
(70,389,o),
(70,350,cs),
(70,311,o),
(101,280,o),
(140,280,cs)
);
},
{
closed = 1;
nodes = (
(459,560,o),
(490,591,o),
(490,630,cs),
(490,669,o),
(459,700,o),
(420,700,cs),
(381,700,o),
(350,669,o),
(350,630,cs),
(350,591,o),
(381,560,o),
(420,560,cs)
);
},
{
closed = 1;
nodes = (
(459,280,o),
(490,311,o),
(490,350,cs),
(490,389,o),
(459,420,o),
(420,420,cs),
(381,420,o),
(350,389,o),
(350,350,cs),
(350,311,o),
(381,280,o),
(420,280,cs)
);
}
);
width = 560;
},
{
layerId = m002;
shapes = (
{
closed = 1;
nodes = (
(179,560,o),
(210,591,o),
(210,630,cs),
(210,669,o),
(179,700,o),
(140,700,cs),
(101,700,o),
(70,669,o),
(70,630,cs),
(70,591,o),
(101,560,o),
(140,560,cs)
);
},
{
closed = 1;
nodes = (
(459,280,o),
(490,311,o),
(490,350,cs),
(490,389,o),
(459,420,o),
(420,420,cs),
(381,420,o),
(350,389,o),
(350,350,cs),
(350,311,o),
(381,280,o),
(420,280,cs)
);
},
{
closed = 1;
nodes = (
(459,0,o),
(490,31,o),
(490,70,cs),
(490,109,o),
(459,140,o),
(420,140,cs),
(381,140,o),
(350,109,o),
(350,70,cs),
(350,31,o),
(381,0,o),
(420,0,cs)
);
}
);
width = 560;
}
);
unicode = (74,106);
},
{
glyphname = K;
lastChange = "2023-05-11 20:25:14 +0000";
layers = (
{
layerId = m01;
shapes = (
{
closed = 1;
nodes = (
(179,560,o),
(210,591,o),
(210,630,cs),
(210,669,o),
(179,700,o),
(140,700,cs),
(101,700,o),
(70,669,o),
(70,630,cs),
(70,591,o),
(101,560,o),
(140,560,cs)
);
},
{
closed = 1;
nodes = (
(179,0,o),
(210,31,o),
(210,70,cs),
(210,109,o),
(179,140,o),
(140,140,cs),
(101,140,o),
(70,109,o),
(70,70,cs),
(70,31,o),
(101,0,o),
(140,0,cs)
);
}
);
width = 560;
},
{
layerId = m002;
shapes = (
{
closed = 1;
nodes = (
(459,560,o),
(490,591,o),
(490,630,cs),
(490,669,o),
(459,700,o),
(420,700,cs),
(381,700,o),
(350,669,o),
(350,630,cs),
(350,591,o),
(381,560,o),
(420,560,cs)
);
},
{
closed = 1;
nodes = (
(179,280,o),
(210,311,o),
(210,350,cs),
(210,389,o),
(179,420,o),
(140,420,cs),
(101,420,o),
(70,389,o),
(70,350,cs),
(70,311,o),
(101,280,o),
(140,280,cs)
);
}
);
width = 560;
}
);
unicode = (75,107);
},
{
glyphname = L;
lastChange = "2023-05-11 20:25:14 +0000";
layers = (
{
layerId = m01;
shapes = (
{
closed = 1;
nodes = (
(179,560,o),
(210,591,o),
(210,630,cs),
(210,669,o),
(179,700,o),
(140,700,cs),
(101,700,o),
(70,669,o),
(70,630,cs),
(70,591,o),
(101,560,o),
(140,560,cs)
);
},
{
closed = 1;
nodes = (
(179,0,o),
(210,31,o),
(210,70,cs),
(210,109,o),
(179,140,o),
(140,140,cs),
(101,140,o),
(70,109,o),
(70,70,cs),
(70,31,o),
(101,0,o),
(140,0,cs)
);
},
{
closed = 1;
nodes = (
(179,280,o),
(210,311,o),
(210,350,cs),
(210,389,o),
(179,420,o),
(140,420,cs),
(101,420,o),
(70,389,o),
(70,350,cs),
(70,311,o),
(101,280,o),
(140,280,cs)
);
}
);
width = 560;
},
{
layerId = m002;
shapes = (
{
closed = 1;
nodes = (
(459,560,o),
(490,591,o),
(490,630,cs),
(490,669,o),
(459,700,o),
(420,700,cs),
(381,700,o),
(350,669,o),
(350,630,cs),
(350,591,o),
(381,560,o),
(420,560,cs)
);
},
{
closed = 1;
nodes = (
(179,280,o),
(210,311,o),
(210,350,cs),
(210,389,o),
(179,420,o),
(140,420,cs),
(101,420,o),
(70,389,o),
(70,350,cs),
(70,311,o),
(101,280,o),
(140,280,cs)
);
},
{
closed = 1;
nodes = (
(179,560,o),
(210,591,o),
(210,630,cs),
(210,669,o),
(179,700,o),
(140,700,cs),
(101,700,o),
(70,669,o),
(70,630,cs),
(70,591,o),
(101,560,o),
(140,560,cs)
);
}
);
width = 560;
}
);
unicode = (76,108);
},
{
glyphname = M;
lastChange = "2023-05-11 20:25:14 +0000";
layers = (
{
layerId = m01;
shapes = (
{
closed = 1;
nodes = (
(179,560,o),
(210,591,o),
(210,630,cs),
(210,669,o),
(179,700,o),
(140,700,cs),
(101,700,o),
(70,669,o),
(70,630,cs),
(70,591,o),
(101,560,o),
(140,560,cs)
);
},
{
closed = 1;
nodes = (
(459,560,o),
(490,591,o),
(490,630,cs),
(490,669,o),
(459,700,o),
(420,700,cs),
(381,700,o),
(350,669,o),
(350,630,cs),
(350,591,o),
(381,560,o),
(420,560,cs)
);
},
{
closed = 1;
nodes = (
(179,0,o),
(210,31,o),
(210,70,cs),
(210,109,o),
(179,140,o),
(140,140,cs),
(101,140,o),
(70,109,o),
(70,70,cs),
(70,31,o),
(101,0,o),
(140,0,cs)
);
}
);
width = 560;
},
{
layerId = m002;
shapes = (
{
closed = 1;
nodes = (
(459,560,o),
(490,591,o),
(490,630,cs),
(490,669,o),
(459,700,o),
(420,700,cs),
(381,700,o),
(350,669,o),
(350,630,cs),
(350,591,o),
(381,560,o),
(420,560,cs)
);
},
{
closed = 1;
nodes = (
(459,280,o),
(490,311,o),
(490,350,cs),
(490,389,o),
(459,420,o),
(420,420,cs),
(381,420,o),
(350,389,o),
(350,350,cs),
(350,311,o),
(381,280,o),
(420,280,cs)
);
},
{
closed = 1;
nodes = (
(179,280,o),
(210,311,o),
(210,350,cs),
(210,389,o),
(179,420,o),
(140,420,cs),
(101,420,o),
(70,389,o),
(70,350,cs),
(70,311,o),
(101,280,o),
(140,280,cs)
);
}
);
width = 560;
}
);
unicode = (77,109);
},
{
glyphname = N;
lastChange = "2023-05-11 20:25:14 +0000";
layers = (
{
layerId = m01;
shapes = (
{
closed = 1;
nodes = (
(179,560,o),
(210,591,o),
(210,630,cs),
(210,669,o),
(179,700,o),
(140,700,cs),
(101,700,o),
(70,669,o),
(70,630,cs),
(70,591,o),
(101,560,o),
(140,560,cs)
);
},
{
closed = 1;
nodes = (
(459,560,o),
(490,591,o),
(490,630,cs),
(490,669,o),
(459,700,o),
(420,700,cs),
(381,700,o),
(350,669,o),
(350,630,cs),
(350,591,o),
(381,560,o),
(420,560,cs)
);
},
{
closed = 1;
nodes = (
(459,280,o),
(490,311,o),
(490,350,cs),
(490,389,o),
(459,420,o),
(420,420,cs),
(381,420,o),
(350,389,o),
(350,350,cs),
(350,311,o),
(381,280,o),
(420,280,cs)
);
},
{
closed = 1;
nodes = (
(179,0,o),
(210,31,o),
(210,70,cs),
(210,109,o),
(179,140,o),
(140,140,cs),
(101,140,o),
(70,109,o),
(70,70,cs),
(70,31,o),
(101,0,o),
(140,0,cs)
);
}
);
width = 560;
},
{
layerId = m002;
shapes = (
{
closed = 1;
nodes = (
(459,560,o),
(490,591,o),
(490,630,cs),
(490,669,o),
(459,700,o),
(420,700,cs),
(381,700,o),
(350,669,o),
(350,630,cs),
(350,591,o),
(381,560,o),
(420,560,cs)
);
},
{
closed = 1;
nodes = (
(459,280,o),
(490,311,o),
(490,350,cs),
(490,389,o),
(459,420,o),
(420,420,cs),
(381,420,o),
(350,389,o),
(350,350,cs),
(350,311,o),
(381,280,o),
(420,280,cs)
);
},
{
closed = 1;
nodes = (
(459,0,o),
(490,31,o),
(490,70,cs),
(490,109,o),
(459,140,o),
(420,140,cs),
(381,140,o),
(350,109,o),
(350,70,cs),
(350,31,o),
(381,0,o),
(420,0,cs)
);
},
{
closed = 1;
nodes = (
(179,280,o),
(210,311,o),
(210,350,cs),
(210,389,o),
(179,420,o),
(140,420,cs),
(101,420,o),
(70,389,o),
(70,350,cs),
(70,311,o),
(101,280,o),
(140,280,cs)
);
}
);
width = 560;
}
);
unicode = (78,110);
},
{
glyphname = O;
lastChange = "2023-05-11 20:25:14 +0000";
layers = (
{
layerId = m01;
shapes = (
{
closed = 1;
nodes = (
(179,560,o),
(210,591,o),
(210,630,cs),
(210,669,o),
(179,700,o),
(140,700,cs),
(101,700,o),
(70,669,o),
(70,630,cs),
(70,591,o),
(101,560,o),
(140,560,cs)
);
},
{
closed = 1;
nodes = (
(459,280,o),
(490,311,o),
(490,350,cs),
(490,389,o),
(459,420,o),
(420,420,cs),
(381,420,o),
(350,389,o),
(350,350,cs),
(350,311,o),
(381,280,o),
(420,280,cs)
);
},
{
closed = 1;
nodes = (
(179,0,o),
(210,31,o),
(210,70,cs),
(210,109,o),
(179,140,o),
(140,140,cs),
(101,140,o),
(70,109,o),
(70,70,cs),
(70,31,o),
(101,0,o),
(140,0,cs)
);
}
);
width = 560;
},
{
layerId = m002;
shapes = (
{
closed = 1;
nodes = (
(459,560,o),
(490,591,o),
(490,630,cs),
(490,669,o),
(459,700,o),
(420,700,cs),
(381,700,o),
(350,669,o),
(350,630,cs),
(350,591,o),
(381,560,o),
(420,560,cs)
);
},
{
closed = 1;
nodes = (
(459,0,o),
(490,31,o),
(490,70,cs),
(490,109,o),
(459,140,o),
(420,140,cs),
(381,140,o),
(350,109,o),
(350,70,cs),
(350,31,o),
(381,0,o),
(420,0,cs)
);
},
{
closed = 1;
nodes = (
(179,280,o),
(210,311,o),
(210,350,cs),
(210,389,o),
(179,420,o),
(140,420,cs),
(101,420,o),
(70,389,o),
(70,350,cs),
(70,311,o),
(101,280,o),
(140,280,cs)
);
}
);
width = 560;
}
);
unicode = (79,111);
},
{
glyphname = P;
lastChange = "2023-05-11 20:25:14 +0000";
layers = (
{
layerId = m01;
shapes = (
{
closed = 1;
nodes = (
(179,560,o),
(210,591,o),
(210,630,cs),
(210,669,o),
(179,700,o),
(140,700,cs),
(101,700,o),
(70,669,o),
(70,630,cs),
(70,591,o),
(101,560,o),
(140,560,cs)
);
},
{
closed = 1;
nodes = (
(179,0,o),
(210,31,o),
(210,70,cs),
(210,109,o),
(179,140,o),
(140,140,cs),
(101,140,o),
(70,109,o),
(70,70,cs),
(70,31,o),
(101,0,o),
(140,0,cs)
);
},
{
closed = 1;
nodes = (
(179,280,o),
(210,311,o),
(210,350,cs),
(210,389,o),
(179,420,o),
(140,420,cs),
(101,420,o),
(70,389,o),
(70,350,cs),
(70,311,o),
(101,280,o),
(140,280,cs)
);
},
{
closed = 1;
nodes = (
(459,560,o),
(490,591,o),
(490,630,cs),
(490,669,o),
(459,700,o),
(420,700,cs),
(381,700,o),
(350,669,o),
(350,630,cs),
(350,591,o),
(381,560,o),
(420,560,cs)
);
}
);
width = 560;
},
{
layerId = m002;
shapes = (
{
closed = 1;
nodes = (
(459,560,o),
(490,591,o),
(490,630,cs),
(490,669,o),
(459,700,o),
(420,700,cs),
(381,700,o),
(350,669,o),
(350,630,cs),
(350,591,o),
(381,560,o),
(420,560,cs)
);
},
{
closed = 1;
nodes = (
(179,280,o),
(210,311,o),
(210,350,cs),
(210,389,o),
(179,420,o),
(140,420,cs),
(101,420,o),
(70,389,o),
(70,350,cs),
(70,311,o),
(101,280,o),
(140,280,cs)
);
},
{
closed = 1;
nodes = (
(179,560,o),
(210,591,o),
(210,630,cs),
(210,669,o),
(179,700,o),
(140,700,cs),
(101,700,o),
(70,669,o),
(70,630,cs),
(70,591,o),
(101,560,o),
(140,560,cs)
);
},
{
closed = 1;
nodes = (
(459,280,o),
(490,311,o),
(490,350,cs),
(490,389,o),
(459,420,o),
(420,420,cs),
(381,420,o),
(350,389,o),
(350,350,cs),
(350,311,o),
(381,280,o),
(420,280,cs)
);
}
);
width = 560;
}
);
unicode = (80,112);
},
{
glyphname = Q;
lastChange = "2023-05-11 20:25:14 +0000";
layers = (
{
layerId = m01;
shapes = (
{
closed = 1;
nodes = (
(179,560,o),
(210,591,o),
(210,630,cs),
(210,669,o),
(179,700,o),
(140,700,cs),
(101,700,o),
(70,669,o),
(70,630,cs),
(70,591,o),
(101,560,o),
(140,560,cs)
);
},
{
closed = 1;
nodes = (
(179,0,o),
(210,31,o),
(210,70,cs),
(210,109,o),
(179,140,o),
(140,140,cs),
(101,140,o),
(70,109,o),
(70,70,cs),
(70,31,o),
(101,0,o),
(140,0,cs)
);
},
{
closed = 1;
nodes = (
(179,280,o),
(210,311,o),
(210,350,cs),
(210,389,o),
(179,420,o),
(140,420,cs),
(101,420,o),
(70,389,o),
(70,350,cs),
(70,311,o),
(101,280,o),
(140,280,cs)
);
},
{
closed = 1;
nodes = (
(459,560,o),
(490,591,o),
(490,630,cs),
(490,669,o),
(459,700,o),
(420,700,cs),
(381,700,o),
(350,669,o),
(350,630,cs),
(350,591,o),
(381,560,o),
(420,560,cs)
);
},
{
closed = 1;
nodes = (
(459,280,o),
(490,311,o),
(490,350,cs),
(490,389,o),
(459,420,o),
(420,420,cs),
(381,420,o),
(350,389,o),
(350,350,cs),
(350,311,o),
(381,280,o),
(420,280,cs)
);
}
);
width = 560;
},
{
layerId = m002;
shapes = (
{
closed = 1;
nodes = (
(459,560,o),
(490,591,o),
(490,630,cs),
(490,669,o),
(459,700,o),
(420,700,cs),
(381,700,o),
(350,669,o),
(350,630,cs),
(350,591,o),
(381,560,o),
(420,560,cs)
);
},
{
closed = 1;
nodes = (
(179,280,o),
(210,311,o),
(210,350,cs),
(210,389,o),
(179,420,o),
(140,420,cs),
(101,420,o),
(70,389,o),
(70,350,cs),
(70,311,o),
(101,280,o),
(140,280,cs)
);
},
{
closed = 1;
nodes = (
(179,560,o),
(210,591,o),
(210,630,cs),
(210,669,o),
(179,700,o),
(140,700,cs),
(101,700,o),
(70,669,o),
(70,630,cs),
(70,591,o),
(101,560,o),
(140,560,cs)
);
},
{
closed = 1;
nodes = (
(459,280,o),
(490,311,o),
(490,350,cs),
(490,389,o),
(459,420,o),
(420,420,cs),
(381,420,o),
(350,389,o),
(350,350,cs),
(350,311,o),
(381,280,o),
(420,280,cs)
);
},
{
closed = 1;
nodes = (
(459,0,o),
(490,31,o),
(490,70,cs),
(490,109,o),
(459,140,o),
(420,140,cs),
(381,140,o),
(350,109,o),
(350,70,cs),
(350,31,o),
(381,0,o),
(420,0,cs)
);
}
);
width = 560;
}
);
unicode = (81,113);
},
{
glyphname = R;
lastChange = "2023-05-11 20:25:14 +0000";
layers = (
{
layerId = m01;
shapes = (
{
closed = 1;
nodes = (
(179,560,o),
(210,591,o),
(210,630,cs),
(210,669,o),
(179,700,o),
(140,700,cs),
(101,700,o),
(70,669,o),
(70,630,cs),
(70,591,o),
(101,560,o),
(140,560,cs)
);
},
{
closed = 1;
nodes = (
(179,0,o),
(210,31,o),
(210,70,cs),
(210,109,o),
(179,140,o),
(140,140,cs),
(101,140,o),
(70,109,o),
(70,70,cs),
(70,31,o),
(101,0,o),
(140,0,cs)
);
},
{
closed = 1;
nodes = (
(179,280,o),
(210,311,o),
(210,350,cs),
(210,389,o),
(179,420,o),
(140,420,cs),
(101,420,o),
(70,389,o),
(70,350,cs),
(70,311,o),
(101,280,o),
(140,280,cs)
);
},
{
closed = 1;
nodes = (
(459,280,o),
(490,311,o),
(490,350,cs),
(490,389,o),
(459,420,o),
(420,420,cs),
(381,420,o),
(350,389,o),
(350,350,cs),
(350,311,o),
(381,280,o),
(420,280,cs)
);
}
);
width = 560;
},
{
layerId = m002;
shapes = (
{
closed = 1;
nodes = (
(459,560,o),
(490,591,o),
(490,630,cs),
(490,669,o),
(459,700,o),
(420,700,cs),
(381,700,o),
(350,669,o),
(350,630,cs),
(350,591,o),
(381,560,o),
(420,560,cs)
);
},
{
closed = 1;
nodes = (
(179,280,o),
(210,311,o),
(210,350,cs),
(210,389,o),
(179,420,o),
(140,420,cs),
(101,420,o),
(70,389,o),
(70,350,cs),
(70,311,o),
(101,280,o),
(140,280,cs)
);
},
{
closed = 1;
nodes = (
(179,560,o),
(210,591,o),
(210,630,cs),
(210,669,o),
(179,700,o),
(140,700,cs),
(101,700,o),
(70,669,o),
(70,630,cs),
(70,591,o),
(101,560,o),
(140,560,cs)
);
},
{
closed = 1;
nodes = (
(459,0,o),
(490,31,o),
(490,70,cs),
(490,109,o),
(459,140,o),
(420,140,cs),
(381,140,o),
(350,109,o),
(350,70,cs),
(350,31,o),
(381,0,o),
(420,0,cs)
);
}
);
width = 560;
}
);
unicode = (82,114);
},
{
glyphname = S;
lastChange = "2023-05-11 20:25:14 +0000";
layers = (
{
layerId = m01;
shapes = (
{
closed = 1;
nodes = (
(459,560,o),
(490,591,o),
(490,630,cs),
(490,669,o),
(459,700,o),
(420,700,cs),
(381,700,o),
(350,669,o),
(350,630,cs),
(350,591,o),
(381,560,o),
(420,560,cs)
);
},
{
closed = 1;
nodes = (
(179,0,o),
(210,31,o),
(210,70,cs),
(210,109,o),
(179,140,o),
(140,140,cs),
(101,140,o),
(70,109,o),
(70,70,cs),
(70,31,o),
(101,0,o),
(140,0,cs)
);
},
{
closed = 1;
nodes = (
(179,280,o),
(210,311,o),
(210,350,cs),
(210,389,o),
(179,420,o),
(140,420,cs),
(101,420,o),
(70,389,o),
(70,350,cs),
(70,311,o),
(101,280,o),
(140,280,cs)
);
}
);
width = 560;
},
{
layerId = m002;
shapes = (
{
closed = 1;
nodes = (
(459,280,o),
(490,311,o),
(490,350,cs),
(490,389,o),
(459,420,o),
(420,420,cs),
(381,420,o),
(350,389,o),
(350,350,cs),
(350,311,o),
(381,280,o),
(420,280,cs)
);
},
{
closed = 1;
nodes = (
(179,280,o),
(210,311,o),
(210,350,cs),
(210,389,o),
(179,420,o),
(140,420,cs),
(101,420,o),
(70,389,o),
(70,350,cs),
(70,311,o),
(101,280,o),
(140,280,cs)
);
},
{
closed = 1;
nodes = (
(179,560,o),
(210,591,o),
(210,630,cs),
(210,669,o),
(179,700,o),
(140,700,cs),
(101,700,o),
(70,669,o),
(70,630,cs),
(70,591,o),
(101,560,o),
(140,560,cs)
);
}
);
width = 560;
}
);
unicode = (83,115);
},
{
glyphname = T;
lastChange = "2023-05-11 20:25:14 +0000";
layers = (
{
layerId = m01;
shapes = (
{
closed = 1;
nodes = (
(459,560,o),
(490,591,o),
(490,630,cs),
(490,669,o),
(459,700,o),
(420,700,cs),
(381,700,o),
(350,669,o),
(350,630,cs),
(350,591,o),
(381,560,o),
(420,560,cs)
);
},
{
closed = 1;
nodes = (
(179,0,o),
(210,31,o),
(210,70,cs),
(210,109,o),
(179,140,o),
(140,140,cs),
(101,140,o),
(70,109,o),
(70,70,cs),
(70,31,o),
(101,0,o),
(140,0,cs)
);
},
{
closed = 1;
nodes = (
(179,280,o),
(210,311,o),
(210,350,cs),
(210,389,o),
(179,420,o),
(140,420,cs),
(101,420,o),
(70,389,o),
(70,350,cs),
(70,311,o),
(101,280,o),
(140,280,cs)
);
},
{
closed = 1;
nodes = (
(459,280,o),
(490,311,o),
(490,350,cs),
(490,389,o),
(459,420,o),
(420,420,cs),
(381,420,o),
(350,389,o),
(350,350,cs),
(350,311,o),
(381,280,o),
(420,280,cs)
);
}
);
width = 560;
},
{
layerId = m002;
shapes = (
{
closed = 1;
nodes = (
(459,280,o),
(490,311,o),
(490,350,cs),
(490,389,o),
(459,420,o),
(420,420,cs),
(381,420,o),
(350,389,o),
(350,350,cs),
(350,311,o),
(381,280,o),
(420,280,cs)
);
},
{
closed = 1;
nodes = (
(179,280,o),
(210,311,o),
(210,350,cs),
(210,389,o),
(179,420,o),
(140,420,cs),
(101,420,o),
(70,389,o),
(70,350,cs),
(70,311,o),
(101,280,o),
(140,280,cs)
);
},
{
closed = 1;
nodes = (
(179,560,o),
(210,591,o),
(210,630,cs),
(210,669,o),
(179,700,o),
(140,700,cs),
(101,700,o),
(70,669,o),
(70,630,cs),
(70,591,o),
(101,560,o),
(140,560,cs)
);
},
{
closed = 1;
nodes = (
(459,0,o),
(490,31,o),
(490,70,cs),
(490,109,o),
(459,140,o),
(420,140,cs),
(381,140,o),
(350,109,o),
(350,70,cs),
(350,31,o),
(381,0,o),
(420,0,cs)
);
}
);
width = 560;
}
);
unicode = (84,116);
},
{
glyphname = U;
lastChange = "2023-05-11 20:25:14 +0000";
layers = (
{
layerId = m01;
shapes = (
{
closed = 1;
nodes = (
(179,560,o),
(210,591,o),
(210,630,cs),
(210,669,o),
(179,700,o),
(140,700,cs),
(101,700,o),
(70,669,o),
(70,630,cs),
(70,591,o),
(101,560,o),
(140,560,cs)
);
},
{
closed = 1;
nodes = (
(179,0,o),
(210,31,o),
(210,70,cs),
(210,109,o),
(179,140,o),
(140,140,cs),
(101,140,o),
(70,109,o),
(70,70,cs),
(70,31,o),
(101,0,o),
(140,0,cs)
);
},
{
closed = 1;
nodes = (
(459,0,o),
(490,31,o),
(490,70,cs),
(490,109,o),
(459,140,o),
(420,140,cs),
(381,140,o),
(350,109,o),
(350,70,cs),
(350,31,o),
(381,0,o),
(420,0,cs)
);
}
);
width = 560;
},
{
layerId = m002;
shapes = (
{
closed = 1;
nodes = (
(459,560,o),
(490,591,o),
(490,630,cs),
(490,669,o),
(459,700,o),
(420,700,cs),
(381,700,o),
(350,669,o),
(350,630,cs),
(350,591,o),
(381,560,o),
(420,560,cs)
);
},
{
closed = 1;
nodes = (
(179,280,o),
(210,311,o),
(210,350,cs),
(210,389,o),
(179,420,o),
(140,420,cs),
(101,420,o),
(70,389,o),
(70,350,cs),
(70,311,o),
(101,280,o),
(140,280,cs)
);
},
{
closed = 1;
nodes = (
(179,0,o),
(210,31,o),
(210,70,cs),
(210,109,o),
(179,140,o),
(140,140,cs),
(101,140,o),
(70,109,o),
(70,70,cs),
(70,31,o),
(101,0,o),
(140,0,cs)
);
}
);
width = 560;
}
);
unicode = (85,117);
},
{
glyphname = V;
lastChange = "2023-05-11 20:25:14 +0000";
layers = (
{
layerId = m01;
shapes = (
{
closed = 1;
nodes = (
(179,560,o),
(210,591,o),
(210,630,cs),
(210,669,o),
(179,700,o),
(140,700,cs),
(101,700,o),
(70,669,o),
(70,630,cs),
(70,591,o),
(101,560,o),
(140,560,cs)
);
},
{
closed = 1;
nodes = (
(179,0,o),
(210,31,o),
(210,70,cs),
(210,109,o),
(179,140,o),
(140,140,cs),
(101,140,o),
(70,109,o),
(70,70,cs),
(70,31,o),
(101,0,o),
(140,0,cs)
);
},
{
closed = 1;
nodes = (
(179,280,o),
(210,311,o),
(210,350,cs),
(210,389,o),
(179,420,o),
(140,420,cs),
(101,420,o),
(70,389,o),
(70,350,cs),
(70,311,o),
(101,280,o),
(140,280,cs)
);
},
{
closed = 1;
nodes = (
(459,0,o),
(490,31,o),
(490,70,cs),
(490,109,o),
(459,140,o),
(420,140,cs),
(381,140,o),
(350,109,o),
(350,70,cs),
(350,31,o),
(381,0,o),
(420,0,cs)
);
}
);
width = 560;
},
{
layerId = m002;
shapes = (
{
closed = 1;
nodes = (
(459,560,o),
(490,591,o),
(490,630,cs),
(490,669,o),
(459,700,o),
(420,700,cs),
(381,700,o),
(350,669,o),
(350,630,cs),
(350,591,o),
(381,560,o),
(420,560,cs)
);
},
{
closed = 1;
nodes = (
(179,280,o),
(210,311,o),
(210,350,cs),
(210,389,o),
(179,420,o),
(140,420,cs),
(101,420,o),
(70,389,o),
(70,350,cs),
(70,311,o),
(101,280,o),
(140,280,cs)
);
},
{
closed = 1;
nodes = (
(179,560,o),
(210,591,o),
(210,630,cs),
(210,669,o),
(179,700,o),
(140,700,cs),
(101,700,o),
(70,669,o),
(70,630,cs),
(70,591,o),
(101,560,o),
(140,560,cs)
);
},
{
closed = 1;
nodes = (
(179,0,o),
(210,31,o),
(210,70,cs),
(210,109,o),
(179,140,o),
(140,140,cs),
(101,140,o),
(70,109,o),
(70,70,cs),
(70,31,o),
(101,0,o),
(140,0,cs)
);
}
);
width = 560;
}
);
unicode = (86,118);
},
{
glyphname = W;
lastChange = "2023-05-11 20:25:14 +0000";
layers = (
{
layerId = m01;
shapes = (
{
closed = 1;
nodes = (
(459,560,o),
(490,591,o),
(490,630,cs),
(490,669,o),
(459,700,o),
(420,700,cs),
(381,700,o),
(350,669,o),
(350,630,cs),
(350,591,o),
(381,560,o),
(420,560,cs)
);
},
{
closed = 1;
nodes = (
(179,280,o),
(210,311,o),
(210,350,cs),
(210,389,o),
(179,420,o),
(140,420,cs),
(101,420,o),
(70,389,o),
(70,350,cs),
(70,311,o),
(101,280,o),
(140,280,cs)
);
},
{
closed = 1;
nodes = (
(459,280,o),
(490,311,o),
(490,350,cs),
(490,389,o),
(459,420,o),
(420,420,cs),
(381,420,o),
(350,389,o),
(350,350,cs),
(350,311,o),
(381,280,o),
(420,280,cs)
);
},
{
closed = 1;
nodes = (
(459,0,o),
(490,31,o),
(490,70,cs),
(490,109,o),
(459,140,o),
(420,140,cs),
(381,140,o),
(350,109,o),
(350,70,cs),
(350,31,o),
(381,0,o),
(420,0,cs)
);
}
);
width = 560;
},
{
layerId = m002;
shapes = (
{
closed = 1;
nodes = (
(459,280,o),
(490,311,o),
(490,350,cs),
(490,389,o),
(459,420,o),
(420,420,cs),
(381,420,o),
(350,389,o),
(350,350,cs),
(350,311,o),
(381,280,o),
(420,280,cs)
);
},
{
closed = 1;
nodes = (
(179,560,o),
(210,591,o),
(210,630,cs),
(210,669,o),
(179,700,o),
(140,700,cs),
(101,700,o),
(70,669,o),
(70,630,cs),
(70,591,o),
(101,560,o),
(140,560,cs)
);
},
{
closed = 1;
nodes = (
(459,0,o),
(490,31,o),
(490,70,cs),
(490,109,o),
(459,140,o),
(420,140,cs),
(381,140,o),
(350,109,o),
(350,70,cs),
(350,31,o),
(381,0,o),
(420,0,cs)
);
},
{
closed = 1;
nodes = (
(179,0,o),
(210,31,o),
(210,70,cs),
(210,109,o),
(179,140,o),
(140,140,cs),
(101,140,o),
(70,109,o),
(70,70,cs),
(70,31,o),
(101,0,o),
(140,0,cs)
);
}
);
width = 560;
}
);
unicode = (87,119);
},
{
glyphname = X;
lastChange = "2023-05-11 20:25:14 +0000";
layers = (
{
layerId = m01;
shapes = (
{
closed = 1;
nodes = (
(179,0,o),
(210,31,o),
(210,70,cs),
(210,109,o),
(179,140,o),
(140,140,cs),
(101,140,o),
(70,109,o),
(70,70,cs),
(70,31,o),
(101,0,o),
(140,0,cs)
);
},
{
closed = 1;
nodes = (
(459,0,o),
(490,31,o),
(490,70,cs),
(490,109,o),
(459,140,o),
(420,140,cs),
(381,140,o),
(350,109,o),
(350,70,cs),
(350,31,o),
(381,0,o),
(420,0,cs)
);
},
{
closed = 1;
nodes = (
(179,560,o),
(210,591,o),
(210,630,cs),
(210,669,o),
(179,700,o),
(140,700,cs),
(101,700,o),
(70,669,o),
(70,630,cs),
(70,591,o),
(101,560,o),
(140,560,cs)
);
},
{
closed = 1;
nodes = (
(459,560,o),
(490,591,o),
(490,630,cs),
(490,669,o),
(459,700,o),
(420,700,cs),
(381,700,o),
(350,669,o),
(350,630,cs),
(350,591,o),
(381,560,o),
(420,560,cs)
);
}
);
width = 560;
},
{
layerId = m002;
shapes = (
{
closed = 1;
nodes = (
(179,280,o),
(210,311,o),
(210,350,cs),
(210,389,o),
(179,420,o),
(140,420,cs),
(101,420,o),
(70,389,o),
(70,350,cs),
(70,311,o),
(101,280,o),
(140,280,cs)
);
},
{
closed = 1;
nodes = (
(179,0,o),
(210,31,o),
(210,70,cs),
(210,109,o),
(179,140,o),
(140,140,cs),
(101,140,o),
(70,109,o),
(70,70,cs),
(70,31,o),
(101,0,o),
(140,0,cs)
);
},
{
closed = 1;
nodes = (
(459,560,o),
(490,591,o),
(490,630,cs),
(490,669,o),
(459,700,o),
(420,700,cs),
(381,700,o),
(350,669,o),
(350,630,cs),
(350,591,o),
(381,560,o),
(420,560,cs)
);
},
{
closed = 1;
nodes = (
(459,280,o),
(490,311,o),
(490,350,cs),
(490,389,o),
(459,420,o),
(420,420,cs),
(381,420,o),
(350,389,o),
(350,350,cs),
(350,311,o),
(381,280,o),
(420,280,cs)
);
}
);
width = 560;
}
);
unicode = (88,120);
},
{
glyphname = Y;
lastChange = "2023-05-11 20:25:14 +0000";
layers = (
{
layerId = m01;
shapes = (
{
closed = 1;
nodes = (
(459,560,o),
(490,591,o),
(490,630,cs),
(490,669,o),
(459,700,o),
(420,700,cs),
(381,700,o),
(350,669,o),
(350,630,cs),
(350,591,o),
(381,560,o),
(420,560,cs)
);
},
{
closed = 1;
nodes = (
(179,0,o),
(210,31,o),
(210,70,cs),
(210,109,o),
(179,140,o),
(140,140,cs),
(101,140,o),
(70,109,o),
(70,70,cs),
(70,31,o),
(101,0,o),
(140,0,cs)
);
},
{
closed = 1;
nodes = (
(459,280,o),
(490,311,o),
(490,350,cs),
(490,389,o),
(459,420,o),
(420,420,cs),
(381,420,o),
(350,389,o),
(350,350,cs),
(350,311,o),
(381,280,o),
(420,280,cs)
);
},
{
closed = 1;
nodes = (
(459,0,o),
(490,31,o),
(490,70,cs),
(490,109,o),
(459,140,o),
(420,140,cs),
(381,140,o),
(350,109,o),
(350,70,cs),
(350,31,o),
(381,0,o),
(420,0,cs)
);
},
{
closed = 1;
nodes = (
(179,560,o),
(210,591,o),
(210,630,cs),
(210,669,o),
(179,700,o),
(140,700,cs),
(101,700,o),
(70,669,o),
(70,630,cs),
(70,591,o),
(101,560,o),
(140,560,cs)
);
}
);
width = 560;
},
{
layerId = m002;
shapes = (
{
closed = 1;
nodes = (
(459,280,o),
(490,311,o),
(490,350,cs),
(490,389,o),
(459,420,o),
(420,420,cs),
(381,420,o),
(350,389,o),
(350,350,cs),
(350,311,o),
(381,280,o),
(420,280,cs)
);
},
{
closed = 1;
nodes = (
(179,280,o),
(210,311,o),
(210,350,cs),
(210,389,o),
(179,420,o),
(140,420,cs),
(101,420,o),
(70,389,o),
(70,350,cs),
(70,311,o),
(101,280,o),
(140,280,cs)
);
},
{
closed = 1;
nodes = (
(459,0,o),
(490,31,o),
(490,70,cs),
(490,109,o),
(459,140,o),
(420,140,cs),
(381,140,o),
(350,109,o),
(350,70,cs),
(350,31,o),
(381,0,o),
(420,0,cs)
);
},
{
closed = 1;
nodes = (
(179,0,o),
(210,31,o),
(210,70,cs),
(210,109,o),
(179,140,o),
(140,140,cs),
(101,140,o),
(70,109,o),
(70,70,cs),
(70,31,o),
(101,0,o),
(140,0,cs)
);
},
{
closed = 1;
nodes = (
(459,560,o),
(490,591,o),
(490,630,cs),
(490,669,o),
(459,700,o),
(420,700,cs),
(381,700,o),
(350,669,o),
(350,630,cs),
(350,591,o),
(381,560,o),
(420,560,cs)
);
}
);
width = 560;
}
);
unicode = (89,121);
},
{
glyphname = Z;
lastChange = "2023-05-11 20:25:14 +0000";
layers = (
{
layerId = m01;
shapes = (
{
closed = 1;
nodes = (
(179,0,o),
(210,31,o),
(210,70,cs),
(210,109,o),
(179,140,o),
(140,140,cs),
(101,140,o),
(70,109,o),
(70,70,cs),
(70,31,o),
(101,0,o),
(140,0,cs)
);
},
{
closed = 1;
nodes = (
(459,280,o),
(490,311,o),
(490,350,cs),
(490,389,o),
(459,420,o),
(420,420,cs),
(381,420,o),
(350,389,o),
(350,350,cs),
(350,311,o),
(381,280,o),
(420,280,cs)
);
},
{
closed = 1;
nodes = (
(459,0,o),
(490,31,o),
(490,70,cs),
(490,109,o),
(459,140,o),
(420,140,cs),
(381,140,o),
(350,109,o),
(350,70,cs),
(350,31,o),
(381,0,o),
(420,0,cs)
);
},
{
closed = 1;
nodes = (
(179,560,o),
(210,591,o),
(210,630,cs),
(210,669,o),
(179,700,o),
(140,700,cs),
(101,700,o),
(70,669,o),
(70,630,cs),
(70,591,o),
(101,560,o),
(140,560,cs)
);
}
);
width = 560;
},
{
layerId = m002;
shapes = (
{
closed = 1;
nodes = (
(179,280,o),
(210,311,o),
(210,350,cs),
(210,389,o),
(179,420,o),
(140,420,cs),
(101,420,o),
(70,389,o),
(70,350,cs),
(70,311,o),
(101,280,o),
(140,280,cs)
);
},
{
closed = 1;
nodes = (
(459,0,o),
(490,31,o),
(490,70,cs),
(490,109,o),
(459,140,o),
(420,140,cs),
(381,140,o),
(350,109,o),
(350,70,cs),
(350,31,o),
(381,0,o),
(420,0,cs)
);
},
{
closed = 1;
nodes = (
(179,0,o),
(210,31,o),
(210,70,cs),
(210,109,o),
(179,140,o),
(140,140,cs),
(101,140,o),
(70,109,o),
(70,70,cs),
(70,31,o),
(101,0,o),
(140,0,cs)
);
},
{
closed = 1;
nodes = (
(459,560,o),
(490,591,o),
(490,630,cs),
(490,669,o),
(459,700,o),
(420,700,cs),
(381,700,o),
(350,669,o),
(350,630,cs),
(350,591,o),
(381,560,o),
(420,560,cs)
);
}
);
width = 560;
}
);
unicode = (90,122);
},
{
glyphname = zero;
lastChange = "2023-04-21 00:53:10 +0000";
layers = (
{
layerId = m01;
shapes = (
{
closed = 1;
nodes = (
(179,280,o),
(210,311,o),
(210,350,cs),
(210,389,o),
(179,420,o),
(140,420,cs),
(101,420,o),
(70,389,o),
(70,350,cs),
(70,311,o),
(101,280,o),
(140,280,cs)
);
},
{
closed = 1;
nodes = (
(459,560,o),
(490,591,o),
(490,630,cs),
(490,669,o),
(459,700,o),
(420,700,cs),
(381,700,o),
(350,669,o),
(350,630,cs),
(350,591,o),
(381,560,o),
(420,560,cs)
);
},
{
closed = 1;
nodes = (
(459,280,o),
(490,311,o),
(490,350,cs),
(490,389,o),
(459,420,o),
(420,420,cs),
(381,420,o),
(350,389,o),
(350,350,cs),
(350,311,o),
(381,280,o),
(420,280,cs)
);
}
);
width = 560;
},
{
layerId = m002;
shapes = (
{
closed = 1;
nodes = (
(179,560,o),
(210,591,o),
(210,630,cs),
(210,669,o),
(179,700,o),
(140,700,cs),
(101,700,o),
(70,669,o),
(70,630,cs),
(70,591,o),
(101,560,o),
(140,560,cs)
);
},
{
closed = 1;
nodes = (
(459,280,o),
(490,311,o),
(490,350,cs),
(490,389,o),
(459,420,o),
(420,420,cs),
(381,420,o),
(350,389,o),
(350,350,cs),
(350,311,o),
(381,280,o),
(420,280,cs)
);
},
{
closed = 1;
nodes = (
(459,0,o),
(490,31,o),
(490,70,cs),
(490,109,o),
(459,140,o),
(420,140,cs),
(381,140,o),
(350,109,o),
(350,70,cs),
(350,31,o),
(381,0,o),
(420,0,cs)
);
}
);
width = 560;
}
);
unicode = 48;
},
{
glyphname = one;
lastChange = "2023-04-21 00:53:25 +0000";
layers = (
{
layerId = m01;
shapes = (
{
closed = 1;
nodes = (
(179,560,o),
(210,591,o),
(210,630,cs),
(210,669,o),
(179,700,o),
(140,700,cs),
(101,700,o),
(70,669,o),
(70,630,cs),
(70,591,o),
(101,560,o),
(140,560,cs)
);
}
);
width = 560;
},
{
layerId = m002;
shapes = (
{
closed = 1;
nodes = (
(459,560,o),
(490,591,o),
(490,630,cs),
(490,669,o),
(459,700,o),
(420,700,cs),
(381,700,o),
(350,669,o),
(350,630,cs),
(350,591,o),
(381,560,o),
(420,560,cs)
);
}
);
width = 560;
}
);
unicode = 49;
},
{
glyphname = two;
lastChange = "2023-04-21 00:53:44 +0000";
layers = (
{
layerId = m01;
shapes = (
{
closed = 1;
nodes = (
(179,560,o),
(210,591,o),
(210,630,cs),
(210,669,o),
(179,700,o),
(140,700,cs),
(101,700,o),
(70,669,o),
(70,630,cs),
(70,591,o),
(101,560,o),
(140,560,cs)
);
},
{
closed = 1;
nodes = (
(179,280,o),
(210,311,o),
(210,350,cs),
(210,389,o),
(179,420,o),
(140,420,cs),
(101,420,o),
(70,389,o),
(70,350,cs),
(70,311,o),
(101,280,o),
(140,280,cs)
);
}
);
width = 560;
},
{
layerId = m002;
shapes = (
{
closed = 1;
nodes = (
(459,560,o),
(490,591,o),
(490,630,cs),
(490,669,o),
(459,700,o),
(420,700,cs),
(381,700,o),
(350,669,o),
(350,630,cs),
(350,591,o),
(381,560,o),
(420,560,cs)
);
},
{
closed = 1;
nodes = (
(179,560,o),
(210,591,o),
(210,630,cs),
(210,669,o),
(179,700,o),
(140,700,cs),
(101,700,o),
(70,669,o),
(70,630,cs),
(70,591,o),
(101,560,o),
(140,560,cs)
);
}
);
width = 560;
}
);
unicode = 50;
},
{
glyphname = three;
lastChange = "2023-04-21 00:54:22 +0000";
layers = (
{
layerId = m01;
shapes = (
{
closed = 1;
nodes = (
(179,560,o),
(210,591,o),
(210,630,cs),
(210,669,o),
(179,700,o),
(140,700,cs),
(101,700,o),
(70,669,o),
(70,630,cs),
(70,591,o),
(101,560,o),
(140,560,cs)
);
},
{
closed = 1;
nodes = (
(459,560,o),
(490,591,o),
(490,630,cs),
(490,669,o),
(459,700,o),
(420,700,cs),
(381,700,o),
(350,669,o),
(350,630,cs),
(350,591,o),
(381,560,o),
(420,560,cs)
);
}
);
width = 560;
},
{
layerId = m002;
shapes = (
{
closed = 1;
nodes = (
(459,560,o),
(490,591,o),
(490,630,cs),
(490,669,o),
(459,700,o),
(420,700,cs),
(381,700,o),
(350,669,o),
(350,630,cs),
(350,591,o),
(381,560,o),
(420,560,cs)
);
},
{
closed = 1;
nodes = (
(459,280,o),
(490,311,o),
(490,350,cs),
(490,389,o),
(459,420,o),
(420,420,cs),
(381,420,o),
(350,389,o),
(350,350,cs),
(350,311,o),
(381,280,o),
(420,280,cs)
);
}
);
width = 560;
}
);
unicode = 51;
},
{
glyphname = four;
lastChange = "2023-04-21 00:54:39 +0000";
layers = (
{
layerId = m01;
shapes = (
{
closed = 1;
nodes = (
(179,560,o),
(210,591,o),
(210,630,cs),
(210,669,o),
(179,700,o),
(140,700,cs),
(101,700,o),
(70,669,o),
(70,630,cs),
(70,591,o),
(101,560,o),
(140,560,cs)
);
},
{
closed = 1;
nodes = (
(459,560,o),
(490,591,o),
(490,630,cs),
(490,669,o),
(459,700,o),
(420,700,cs),
(381,700,o),
(350,669,o),
(350,630,cs),
(350,591,o),
(381,560,o),
(420,560,cs)
);
},
{
closed = 1;
nodes = (
(459,280,o),
(490,311,o),
(490,350,cs),
(490,389,o),
(459,420,o),
(420,420,cs),
(381,420,o),
(350,389,o),
(350,350,cs),
(350,311,o),
(381,280,o),
(420,280,cs)
);
}
);
width = 560;
},
{
layerId = m002;
shapes = (
{
closed = 1;
nodes = (
(459,560,o),
(490,591,o),
(490,630,cs),
(490,669,o),
(459,700,o),
(420,700,cs),
(381,700,o),
(350,669,o),
(350,630,cs),
(350,591,o),
(381,560,o),
(420,560,cs)
);
},
{
closed = 1;
nodes = (
(459,280,o),
(490,311,o),
(490,350,cs),
(490,389,o),
(459,420,o),
(420,420,cs),
(381,420,o),
(350,389,o),
(350,350,cs),
(350,311,o),
(381,280,o),
(420,280,cs)
);
},
{
closed = 1;
nodes = (
(459,0,o),
(490,31,o),
(490,70,cs),
(490,109,o),
(459,140,o),
(420,140,cs),
(381,140,o),
(350,109,o),
(350,70,cs),
(350,31,o),
(381,0,o),
(420,0,cs)
);
}
);
width = 560;
}
);
unicode = 52;
},
{
glyphname = five;
lastChange = "2023-04-21 00:54:55 +0000";
layers = (
{
layerId = m01;
shapes = (
{
closed = 1;
nodes = (
(179,560,o),
(210,591,o),
(210,630,cs),
(210,669,o),
(179,700,o),
(140,700,cs),
(101,700,o),
(70,669,o),
(70,630,cs),
(70,591,o),
(101,560,o),
(140,560,cs)
);
},
{
closed = 1;
nodes = (
(459,280,o),
(490,311,o),
(490,350,cs),
(490,389,o),
(459,420,o),
(420,420,cs),
(381,420,o),
(350,389,o),
(350,350,cs),
(350,311,o),
(381,280,o),
(420,280,cs)
);
}
);
width = 560;
},
{
layerId = m002;
shapes = (
{
closed = 1;
nodes = (
(459,560,o),
(490,591,o),
(490,630,cs),
(490,669,o),
(459,700,o),
(420,700,cs),
(381,700,o),
(350,669,o),
(350,630,cs),
(350,591,o),
(381,560,o),
(420,560,cs)
);
},
{
closed = 1;
nodes = (
(459,0,o),
(490,31,o),
(490,70,cs),
(490,109,o),
(459,140,o),
(420,140,cs),
(381,140,o),
(350,109,o),
(350,70,cs),
(350,31,o),
(381,0,o),
(420,0,cs)
);
}
);
width = 560;
}
);
unicode = 53;
},
{
glyphname = six;
lastChange = "2023-04-21 00:55:23 +0000";
layers = (
{
layerId = m01;
shapes = (
{
closed = 1;
nodes = (
(179,560,o),
(210,591,o),
(210,630,cs),
(210,669,o),
(179,700,o),
(140,700,cs),
(101,700,o),
(70,669,o),
(70,630,cs),
(70,591,o),
(101,560,o),
(140,560,cs)
);
},
{
closed = 1;
nodes = (
(179,280,o),
(210,311,o),
(210,350,cs),
(210,389,o),
(179,420,o),
(140,420,cs),
(101,420,o),
(70,389,o),
(70,350,cs),
(70,311,o),
(101,280,o),
(140,280,cs)
);
},
{
closed = 1;
nodes = (
(459,560,o),
(490,591,o),
(490,630,cs),
(490,669,o),
(459,700,o),
(420,700,cs),
(381,700,o),
(350,669,o),
(350,630,cs),
(350,591,o),
(381,560,o),
(420,560,cs)
);
}
);
width = 560;
},
{
layerId = m002;
shapes = (
{
closed = 1;
nodes = (
(459,560,o),
(490,591,o),
(490,630,cs),
(490,669,o),
(459,700,o),
(420,700,cs),
(381,700,o),
(350,669,o),
(350,630,cs),
(350,591,o),
(381,560,o),
(420,560,cs)
);
},
{
closed = 1;
nodes = (
(179,560,o),
(210,591,o),
(210,630,cs),
(210,669,o),
(179,700,o),
(140,700,cs),
(101,700,o),
(70,669,o),
(70,630,cs),
(70,591,o),
(101,560,o),
(140,560,cs)
);
},
{
closed = 1;
nodes = (
(459,0,o),
(490,31,o),
(490,70,cs),
(490,109,o),
(459,140,o),
(420,140,cs),
(381,140,o),
(350,109,o),
(350,70,cs),
(350,31,o),
(381,0,o),
(420,0,cs)
);
}
);
width = 560;
}
);
unicode = 54;
},
{
glyphname = seven;
lastChange = "2023-04-21 00:55:45 +0000";
layers = (
{
layerId = m01;
shapes = (
{
closed = 1;
nodes = (
(179,560,o),
(210,591,o),
(210,630,cs),
(210,669,o),
(179,700,o),
(140,700,cs),
(101,700,o),
(70,669,o),
(70,630,cs),
(70,591,o),
(101,560,o),
(140,560,cs)
);
},
{
closed = 1;
nodes = (
(179,280,o),
(210,311,o),
(210,350,cs),
(210,389,o),
(179,420,o),
(140,420,cs),
(101,420,o),
(70,389,o),
(70,350,cs),
(70,311,o),
(101,280,o),
(140,280,cs)
);
},
{
closed = 1;
nodes = (
(459,560,o),
(490,591,o),
(490,630,cs),
(490,669,o),
(459,700,o),
(420,700,cs),
(381,700,o),
(350,669,o),
(350,630,cs),
(350,591,o),
(381,560,o),
(420,560,cs)
);
},
{
closed = 1;
nodes = (
(459,280,o),
(490,311,o),
(490,350,cs),
(490,389,o),
(459,420,o),
(420,420,cs),
(381,420,o),
(350,389,o),
(350,350,cs),
(350,311,o),
(381,280,o),
(420,280,cs)
);
}
);
width = 560;
},
{
layerId = m002;
shapes = (
{
closed = 1;
nodes = (
(459,560,o),
(490,591,o),
(490,630,cs),
(490,669,o),
(459,700,o),
(420,700,cs),
(381,700,o),
(350,669,o),
(350,630,cs),
(350,591,o),
(381,560,o),
(420,560,cs)
);
},
{
closed = 1;
nodes = (
(179,560,o),
(210,591,o),
(210,630,cs),
(210,669,o),
(179,700,o),
(140,700,cs),
(101,700,o),
(70,669,o),
(70,630,cs),
(70,591,o),
(101,560,o),
(140,560,cs)
);
},
{
closed = 1;
nodes = (
(459,280,o),
(490,311,o),
(490,350,cs),
(490,389,o),
(459,420,o),
(420,420,cs),
(381,420,o),
(350,389,o),
(350,350,cs),
(350,311,o),
(381,280,o),
(420,280,cs)
);
},
{
closed = 1;
nodes = (
(459,0,o),
(490,31,o),
(490,70,cs),
(490,109,o),
(459,140,o),
(420,140,cs),
(381,140,o),
(350,109,o),
(350,70,cs),
(350,31,o),
(381,0,o),
(420,0,cs)
);
}
);
width = 560;
}
);
unicode = 55;
},
{
glyphname = eight;
lastChange = "2023-04-21 00:56:20 +0000";
layers = (
{
layerId = m01;
shapes = (
{
closed = 1;
nodes = (
(179,560,o),
(210,591,o),
(210,630,cs),
(210,669,o),
(179,700,o),
(140,700,cs),
(101,700,o),
(70,669,o),
(70,630,cs),
(70,591,o),
(101,560,o),
(140,560,cs)
);
},
{
closed = 1;
nodes = (
(179,280,o),
(210,311,o),
(210,350,cs),
(210,389,o),
(179,420,o),
(140,420,cs),
(101,420,o),
(70,389,o),
(70,350,cs),
(70,311,o),
(101,280,o),
(140,280,cs)
);
},
{
closed = 1;
nodes = (
(459,280,o),
(490,311,o),
(490,350,cs),
(490,389,o),
(459,420,o),
(420,420,cs),
(381,420,o),
(350,389,o),
(350,350,cs),
(350,311,o),
(381,280,o),
(420,280,cs)
);
}
);
width = 560;
},
{
layerId = m002;
shapes = (
{
closed = 1;
nodes = (
(459,560,o),
(490,591,o),
(490,630,cs),
(490,669,o),
(459,700,o),
(420,700,cs),
(381,700,o),
(350,669,o),
(350,630,cs),
(350,591,o),
(381,560,o),
(420,560,cs)
);
},
{
closed = 1;
nodes = (
(179,560,o),
(210,591,o),
(210,630,cs),
(210,669,o),
(179,700,o),
(140,700,cs),
(101,700,o),
(70,669,o),
(70,630,cs),
(70,591,o),
(101,560,o),
(140,560,cs)
);
},
{
closed = 1;
nodes = (
(459,0,o),
(490,31,o),
(490,70,cs),
(490,109,o),
(459,140,o),
(420,140,cs),
(381,140,o),
(350,109,o),
(350,70,cs),
(350,31,o),
(381,0,o),
(420,0,cs)
);
}
);
width = 560;
}
);
unicode = 56;
},
{
glyphname = nine;
lastChange = "2023-04-21 00:56:40 +0000";
layers = (
{
layerId = m01;
shapes = (
{
closed = 1;
nodes = (
(179,280,o),
(210,311,o),
(210,350,cs),
(210,389,o),
(179,420,o),
(140,420,cs),
(101,420,o),
(70,389,o),
(70,350,cs),
(70,311,o),
(101,280,o),
(140,280,cs)
);
},
{
closed = 1;
nodes = (
(459,560,o),
(490,591,o),
(490,630,cs),
(490,669,o),
(459,700,o),
(420,700,cs),
(381,700,o),
(350,669,o),
(350,630,cs),
(350,591,o),
(381,560,o),
(420,560,cs)
);
}
);
width = 560;
},
{
layerId = m002;
shapes = (
{
closed = 1;
nodes = (
(179,560,o),
(210,591,o),
(210,630,cs),
(210,669,o),
(179,700,o),
(140,700,cs),
(101,700,o),
(70,669,o),
(70,630,cs),
(70,591,o),
(101,560,o),
(140,560,cs)
);
},
{
closed = 1;
nodes = (
(459,280,o),
(490,311,o),
(490,350,cs),
(490,389,o),
(459,420,o),
(420,420,cs),
(381,420,o),
(350,389,o),
(350,350,cs),
(350,311,o),
(381,280,o),
(420,280,cs)
);
}
);
width = 560;
}
);
unicode = 57;
},
